<svg width="77" height="83" viewBox="0 0 77 83" fill="none" xmlns="http://www.w3.org/2000/svg">
<path d="M70.3171 83H58.1399C56.1283 83 54.4845 81.3573 54.4845 79.3471V68.8208C52.5379 70.4419 50.4831 71.8685 48.6879 72.9924C44.189 75.8456 38.9764 78.3745 35.4292 79.412C35.0399 79.5201 34.6289 79.5201 34.2612 79.412C30.714 78.3745 25.523 75.8456 21.0025 72.9924C17.0876 70.5068 11.9182 66.6594 9.4525 62.4445C2.50952 50.4917 0.0437927 19.4315 0.0437927 13.6604C0.0437927 12.7742 0.476377 11.9745 1.16851 11.5854C7.5275 8.01901 18.3421 4.23646 33.3528 0.324219C33.807 0.216146 34.5424 0 34.8668 0C35.2129 0 35.9483 0.216146 36.3809 0.324219C48.6663 3.50156 58.2047 6.65729 64.7584 9.66172C65.364 9.94271 65.6452 10.656 65.364 11.2828C65.0828 11.888 64.3691 12.169 63.7418 11.888C57.3179 8.92682 47.9092 5.83594 35.7969 2.68021C35.4076 2.57214 35.0831 2.50729 34.8885 2.44245C34.6938 2.50729 34.3694 2.57214 33.98 2.68021C15.7033 7.43542 6.77048 11.2612 2.48789 13.6388V13.6604C2.48789 19.0857 4.97525 49.8648 11.6154 61.2341C13.3458 64.1953 17.1525 67.632 22.3651 70.9391C26.6477 73.6625 31.5576 76.0617 34.8885 77.056C38.241 76.0617 43.1292 73.6625 47.4118 70.9391C52.6244 67.632 56.4311 64.1737 58.1615 61.2341C58.1831 61.1909 58.2047 61.1477 58.2264 61.1044H58.1615C57.2963 61.1044 56.496 60.8018 55.8904 60.3047C52.5163 65.6651 41.5503 72.1711 35.2994 74.3758C35.2129 74.419 35.1047 74.4406 34.9966 74.4406C34.9533 74.4406 34.9317 74.4406 34.8885 74.4406C34.7371 74.4406 34.5856 74.419 34.4559 74.3542C29.6758 72.6682 21.9758 68.4318 17.0227 63.8927C16.5253 63.4388 16.5036 62.6607 16.9578 62.1852C17.4121 61.688 18.1907 61.6664 18.6665 62.1203C22.7112 65.838 29.0702 69.5557 33.6772 71.4578V39.2305H10.123C11.5073 47.0766 13.389 54.6417 15.8115 58.7917C16.1576 59.3753 15.9629 60.1102 15.3789 60.456C14.7949 60.8018 14.0595 60.6073 13.7135 60.0237C7.70053 49.7352 5.29969 22.5872 4.97525 15.8867C4.95362 15.4112 5.21317 14.9573 5.64576 14.7411C11.9182 11.6503 21.6297 8.40807 34.5424 5.0362C34.6289 5.01458 34.7371 4.99297 34.8452 4.99297C34.8668 4.99297 34.8885 4.99297 34.9101 4.99297C35.0182 4.99297 35.1264 5.01458 35.2129 5.0362C48.1255 8.38646 57.837 11.6503 64.1095 14.7195C64.5421 14.9357 64.8017 15.3896 64.78 15.8651C64.7368 17.0107 64.6502 18.3292 64.5205 19.7557H66.9429C67.1809 16.7081 67.2674 14.6115 67.2674 13.6388C67.2674 13.6172 67.2674 13.6172 67.2674 13.5956C66.7699 13.2281 66.6185 12.5581 66.9213 12.0177C67.2458 11.4341 68.0028 11.218 68.5868 11.5638C69.2789 11.9529 69.7115 12.7526 69.7115 13.6388C69.7115 14.6331 69.625 16.7297 69.387 19.7557C69.971 19.8422 70.4036 20.3609 70.4036 20.9445C70.4036 21.6146 69.8629 22.1549 69.1924 22.1549H58.1615C57.491 22.1549 56.9502 22.6953 56.9502 23.3654V35.5344C56.9502 36.2044 57.491 36.7448 58.1615 36.7448H70.3387C71.0092 36.7448 71.55 36.2044 71.55 35.5344V26.8453L65.5154 32.8758C65.0396 33.3513 64.2609 33.3513 63.7851 32.8758L59.7188 28.8122C59.2429 28.3367 59.2429 27.5586 59.7188 27.0831C60.1946 26.6076 60.9733 26.6076 61.4491 27.0831L64.6502 30.282L74.8592 20.0799C75.3351 19.6044 76.1137 19.6044 76.5896 20.0799C77.0654 20.5555 77.0654 21.3336 76.5896 21.8091L73.9724 24.4677V35.5776C73.9724 37.5878 72.3286 39.2305 70.3171 39.2305H67.0511C66.9213 40.0518 66.7699 40.8732 66.6185 41.6513H69.1924C69.8629 41.6513 70.4036 42.1917 70.4036 42.8617C70.4036 43.5318 69.8629 44.0721 69.1924 44.0721H58.1615C57.491 44.0721 56.9502 44.6125 56.9502 45.2826C56.9502 45.2826 56.9502 57.5813 56.9719 57.6461C56.9719 57.6677 56.9719 57.6893 56.9935 57.7109C57.1233 58.2513 57.5991 58.662 58.1831 58.662H70.3604C71.0309 58.662 71.5716 58.1216 71.5716 57.4516V48.7625L65.537 54.793C65.0612 55.2685 64.2826 55.2685 63.8067 54.793L59.7404 50.7294C59.2646 50.2539 59.2646 49.4758 59.7404 49.0003C60.2163 48.5247 60.9949 48.5247 61.4708 49.0003L64.6719 52.1992L74.8809 41.9971C75.3567 41.5216 76.1354 41.5216 76.6112 41.9971C77.0871 42.4727 77.0871 43.2508 76.6112 43.7263L73.9724 46.3417V57.4516C73.9724 59.4617 72.3286 61.1044 70.3171 61.1044H60.9949C60.757 61.5799 60.4974 62.0339 60.2595 62.4661C60.0432 62.8336 59.8269 63.1794 59.5674 63.5469H69.1924C69.8629 63.5469 70.4036 64.0872 70.4036 64.7573C70.4036 65.4273 69.8629 65.9677 69.1924 65.9677H58.1615C57.491 65.9677 56.9502 66.5081 56.9502 67.1781V79.3471C56.9502 80.0172 57.491 80.5576 58.1615 80.5576H70.3387C71.0092 80.5576 71.55 80.0172 71.55 79.3471V70.6581L65.5154 76.6885C65.0396 77.1641 64.2609 77.1641 63.7851 76.6885L59.7404 72.625C59.2646 72.1495 59.2646 71.3714 59.7404 70.8958C60.2163 70.4203 60.9949 70.4203 61.4708 70.8958L64.6719 74.0948L74.8809 63.8927C75.3567 63.4172 76.1354 63.4172 76.6112 63.8927C77.0871 64.3682 77.0871 65.1464 76.6112 65.6219L73.9724 68.2372V79.3471C73.9724 81.3573 72.3286 83 70.3171 83ZM36.0997 39.2305V71.4578C42.6966 68.7344 51.5429 62.9201 53.9654 58.7917C54.1601 58.4674 54.3547 58.1216 54.5278 57.7326C54.5278 57.6461 54.5278 57.538 54.5278 57.4516V45.2826C54.5278 43.2724 56.1716 41.6297 58.1831 41.6297H59.2213C59.3727 40.8299 59.5241 40.0302 59.6755 39.2089H36.0997V39.2305ZM61.6654 41.6729H64.1528C64.3042 40.8732 64.434 40.0734 64.5854 39.2521H62.1196C61.9682 40.0518 61.8168 40.8732 61.6654 41.6729ZM36.0997 36.8096H54.7224C54.5927 36.4206 54.5062 36.0099 54.5062 35.5992V23.4302C54.5062 21.4201 56.15 19.7773 58.1615 19.7773H62.098C62.1845 18.6318 62.271 17.5294 62.3143 16.5784C58.0533 14.5682 50.1803 11.5206 36.0997 7.78125V36.8096ZM9.71205 36.8096H33.6772V7.80286C19.575 11.5206 11.7019 14.5682 7.46261 16.5784C7.72216 21.3768 8.45756 29.0932 9.71205 36.8096Z" fill="#D6B764"/>
</svg>
