<svg width="98" height="98" viewBox="0 0 98 98" fill="none" xmlns="http://www.w3.org/2000/svg">
<g clip-path="url(#clip0_2_675)">
<path d="M49 89.8269C26.5481 89.8269 8.17307 71.4519 8.17307 48.9999C8.17307 26.548 26.5481 8.17299 49 8.17299C71.452 8.17299 89.827 26.548 89.827 48.9999C89.827 71.4519 71.452 89.8269 49 89.8269ZM49 12.2499C28.577 12.2499 12.25 28.5769 12.25 48.9999C12.25 69.423 28.577 85.7499 49 85.7499C69.4231 85.7499 85.75 69.423 85.75 48.9999C85.75 28.5769 69.4231 12.2499 49 12.2499Z" fill="#D8BC8B"/>
<path d="M49 20.423C47.775 20.423 46.9519 19.6 46.9519 18.375V2.04805C46.9519 0.823047 47.775 0 49 0C50.225 0 51.048 0.823047 51.048 2.04805V18.375C51.048 19.6 50.225 20.423 49 20.423Z" fill="#D8BC8B"/>
<path d="M49 20.423C47.775 20.423 46.9519 19.6 46.9519 18.375V2.04805C46.9519 0.823047 47.775 0 49 0C50.225 0 51.048 0.823047 51.048 2.04805V18.375C51.048 19.6 50.225 20.423 49 20.423Z" fill="#D8BC8B"/>
<path d="M95.9518 51.0484H79.6248C78.3998 51.0484 77.5768 50.2253 77.5768 49.0003C77.5768 47.7753 78.3998 46.9523 79.6248 46.9523H95.9518C97.1768 46.9523 97.9998 47.7753 97.9998 49.0003C97.9998 50.2253 97.1768 51.0484 95.9518 51.0484Z" fill="#D8BC8B"/>
<path d="M49 98.0001C47.775 98.0001 46.9519 97.177 46.9519 95.952V79.625C46.9519 78.4 47.775 77.577 49 77.577C50.225 77.577 51.048 78.4 51.048 79.625V95.952C51.048 97.177 50.225 98.0001 49 98.0001Z" fill="#D8BC8B"/>
<path d="M18.375 51.0484H2.04805C0.823047 51.0484 0 50.2253 0 49.0003C0 47.7753 0.823047 46.9523 2.04805 46.9523H18.375C19.6 46.9523 20.423 47.7753 20.423 49.0003C20.423 50.2253 19.6 51.0484 18.375 51.0484Z" fill="#D8BC8B"/>
<path d="M49 44.9234C44.5019 44.9234 40.8269 41.2484 40.8269 36.7503C40.8269 32.2523 44.5019 28.5773 49 28.5773C53.498 28.5773 57.173 32.2523 57.173 36.7503C57.173 41.2484 53.498 44.9234 49 44.9234ZM49 32.6734C46.55 32.6734 44.923 34.3003 44.923 36.7503C44.923 39.2003 46.55 40.8273 49 40.8273C51.45 40.8273 53.0769 39.2003 53.0769 36.7503C53.0769 34.3003 51.45 32.6734 49 32.6734Z" fill="#D8BC8B"/>
<path d="M63.2979 65.327C62.0729 65.327 61.2498 64.5039 61.2498 63.2789V59.202C61.2498 55.9289 58.3979 53.077 55.1248 53.077H42.8748C39.6018 53.077 36.7498 55.9289 36.7498 59.202V63.2789C36.7498 64.5039 35.9268 65.327 34.7018 65.327C33.4768 65.327 32.6537 64.5039 32.6537 63.2789V59.202C32.6537 53.4789 37.1518 49 42.8557 49H55.1057C60.8287 49 65.3076 53.498 65.3076 59.202V63.2789C65.3268 64.523 64.5229 65.327 63.2979 65.327Z" fill="#D8BC8B"/>
</g>
<defs>
<clipPath id="clip0_2_675">
<rect width="98" height="98" fill="white"/>
</clipPath>
</defs>
</svg>
