<svg width="85" height="73" viewBox="0 0 85 73" fill="none" xmlns="http://www.w3.org/2000/svg">
<path d="M70.643 0.831299C64.1496 0.831299 59.019 6.04133 59.019 12.5338C59.019 19.0263 64.2298 24.1562 70.643 24.1562C77.0563 24.1562 82.3472 18.9462 82.3472 12.4537C82.3472 5.96118 77.1364 0.831299 70.643 0.831299ZM70.643 21.5913C65.5926 21.5913 61.5042 17.5034 61.5042 12.4537C61.5042 7.40396 65.6728 3.39624 70.643 3.39624C75.6935 3.39624 79.7819 7.48411 79.7819 12.5338C79.7819 17.5836 75.6935 21.5913 70.643 21.5913Z" fill="#D8BC8B"/>
<path d="M74.3304 14.2972C74.2502 14.0568 74.2502 13.8964 74.0899 13.656C74.0097 13.4957 73.9296 13.2552 73.7692 13.0949C73.6089 12.9346 73.5287 12.7743 73.3684 12.614C73.2081 12.4537 73.0477 12.2934 72.8072 12.2132C72.6469 12.0529 72.4064 11.9727 72.2461 11.8926C72.0056 11.8124 71.8453 11.6521 71.6048 11.572C71.3643 11.4918 71.1238 11.4117 70.9634 11.3315C70.8833 11.3315 70.7229 11.2514 70.6428 11.1712C70.5626 11.091 70.4023 11.091 70.3221 11.0109C70.2419 10.9307 70.0816 10.9307 70.0015 10.8506C69.9213 10.7704 69.8411 10.6903 69.761 10.6101C69.6808 10.53 69.6006 10.4498 69.6006 10.2895C69.5205 10.2093 69.5205 10.049 69.5205 9.96888C69.5205 9.80857 69.5205 9.72842 69.5205 9.56811C69.5205 9.48796 69.6006 9.32765 69.6006 9.24749C69.6808 9.16734 69.6808 9.00703 69.761 8.92688C69.8411 8.84672 69.9213 8.76657 70.0015 8.68641C70.0816 8.60626 70.242 8.52611 70.4023 8.52611C70.5626 8.44595 70.6428 8.44595 70.8031 8.44595C70.8833 8.44595 70.9634 8.44595 71.0436 8.44595C71.1238 8.44595 71.2039 8.44595 71.2841 8.44595C71.4444 8.44595 71.5246 8.44595 71.6849 8.52611C71.8453 8.52611 72.0056 8.60626 72.0858 8.60626C72.1659 8.60626 72.3263 8.68641 72.4064 8.68641C72.5668 8.68641 72.6469 8.76657 72.7271 8.76657L73.1279 8.92688L73.2081 8.44595L73.3684 7.16348V6.84286L73.0477 6.76271C72.9676 6.76271 72.8072 6.68256 72.7271 6.68256C72.6469 6.68256 72.5668 6.6024 72.4064 6.6024C72.3263 6.6024 72.1659 6.52225 72.0056 6.52225C71.8453 6.52225 71.7651 6.44209 71.6048 6.44209H71.5246V5.31993V4.91916H71.1238H70.0015H69.6006V5.31993V6.52225H69.5205C69.28 6.6024 69.0395 6.68255 68.799 6.84286C68.5585 6.92302 68.3981 7.08333 68.2378 7.24364C68.0775 7.40394 67.9172 7.56425 67.7568 7.80472C67.5965 7.96502 67.5163 8.20549 67.4362 8.44595C67.356 8.68641 67.2758 8.92688 67.1957 9.16734C67.1155 9.4078 67.1155 9.72842 67.1155 9.96888C67.1155 10.2093 67.1155 10.3697 67.1957 10.6101C67.2758 10.8506 67.2758 11.0109 67.4362 11.2514C67.5163 11.4117 67.6767 11.6521 67.7568 11.8124C67.9172 11.9727 67.9973 12.1331 68.1576 12.2934C68.318 12.4537 68.4783 12.614 68.7188 12.6941C68.8791 12.8544 69.1196 12.9346 69.28 13.0147C69.5205 13.0949 69.761 13.2552 69.9213 13.3354C70.1618 13.4155 70.4023 13.4957 70.5626 13.5758C70.6428 13.5758 70.8031 13.656 70.8833 13.7361C70.9634 13.8163 71.1238 13.8163 71.2039 13.8964C71.2841 13.9766 71.3643 14.0568 71.4444 14.0568C71.5246 14.1369 71.6048 14.2171 71.6849 14.2972C71.7651 14.3774 71.7651 14.4575 71.8453 14.6178C71.8453 14.698 71.9254 14.8583 71.9254 15.0186C71.9254 15.1789 71.9254 15.2591 71.9254 15.4194C71.9254 15.4995 71.8453 15.6598 71.7651 15.74C71.6849 15.8202 71.6048 15.9003 71.5246 15.9805C71.4444 16.0606 71.3643 16.1408 71.2039 16.2209C71.1238 16.3011 70.9634 16.3011 70.8833 16.3812C70.8031 16.3812 70.6428 16.4614 70.4824 16.4614C70.4023 16.4614 70.3221 16.4614 70.1618 16.4614C70.0816 16.4614 69.9213 16.4614 69.8411 16.4614C69.6808 16.4614 69.5205 16.4614 69.4403 16.4614C69.28 16.4614 69.1196 16.3812 69.0395 16.3812C68.8791 16.3812 68.7188 16.3011 68.5585 16.2209C68.3981 16.1408 68.2378 16.1408 68.0775 16.0606C67.9973 16.0606 67.9171 15.9805 67.837 15.9805C67.7568 15.9805 67.6767 15.9003 67.5965 15.9003L67.1155 15.6598L67.0353 16.2209L66.875 17.6637V17.9042L67.1155 17.9843C67.4362 17.9042 67.5965 17.9843 67.837 18.0645C67.9973 18.1446 68.2378 18.2248 68.3981 18.2248C68.5585 18.3049 68.799 18.3049 69.0395 18.3851C69.28 18.4652 69.4403 18.4652 69.6808 18.4652H69.8411V19.6676V20.0683H70.2419H71.3643H71.7651V19.6676V18.3851H71.8453C72.0858 18.3049 72.3263 18.2248 72.5667 18.0645C72.8072 17.9843 72.9676 17.824 73.2081 17.6637C73.3684 17.5034 73.5287 17.3431 73.6891 17.1026C73.8494 16.9423 73.9296 16.7018 74.0899 16.4614C74.1701 16.2209 74.2502 15.9805 74.3304 15.74C74.4106 15.4995 74.4106 15.2591 74.4106 14.9385C74.4106 14.698 74.4106 14.5377 74.3304 14.2972Z" fill="#D8BC8B"/>
<path d="M65.0311 25.679C64.6303 25.1179 63.7485 25.0378 63.1873 25.4385L50.2005 35.7784L33.4459 28.805C33.0451 28.6447 32.5641 28.7249 32.2435 28.9653L14.2864 41.79C13.7252 42.1908 13.5649 42.9923 13.9657 43.5534C14.2062 43.9542 14.6071 44.1145 15.0079 44.1145C15.2484 44.1145 15.4889 44.0343 15.7294 43.874L33.1253 31.4501L49.96 38.4235C50.3609 38.5838 50.922 38.5037 51.2427 38.2632L64.7906 27.5225C65.3518 27.1218 65.432 26.2401 65.0311 25.679Z" fill="#D8BC8B"/>
<path d="M83.7899 69.6035H77.8576V32.492C77.8576 31.7707 77.2965 31.2096 76.575 31.2096H64.7907C64.0692 31.2096 63.508 31.7707 63.508 32.492V69.6035H59.1791V45.3167C59.1791 44.5954 58.6179 44.0343 57.8964 44.0343H46.0319C45.3105 44.0343 44.7493 44.5954 44.7493 45.3167V69.6035H40.4204V43.393C40.4204 42.6716 39.8592 42.1106 39.1377 42.1106H27.3534C26.6319 42.1106 26.0707 42.6716 26.0707 43.393V69.6035H21.7418V50.9275C21.7418 50.2062 21.1807 49.6451 20.4592 49.6451H8.59467C7.87318 49.6451 7.31203 50.2062 7.31203 50.9275V69.6035H1.29962C0.578126 69.6035 0.0169678 70.1646 0.0169678 70.886C0.0169678 71.6074 0.578126 72.1684 1.29962 72.1684H8.51451H20.2988H27.3534H39.1377H46.0319H57.8163H64.7105H76.4948H83.7097C84.4312 72.1684 84.9924 71.6074 84.9924 70.886C85.0725 70.1646 84.5114 69.6035 83.7899 69.6035ZM19.0963 69.6035H9.87732V52.21H19.0963V69.6035ZM37.8551 69.6035H28.636V44.6755H37.8551V69.6035ZM56.5336 69.6035H47.3146V46.5992H56.5336V69.6035ZM75.2923 69.6035H66.0733V33.7745H75.2923V69.6035Z" fill="#D8BC8B"/>
</svg>
