<svg width="90" height="91" viewBox="0 0 90 91" fill="none" xmlns="http://www.w3.org/2000/svg">
<g clip-path="url(#clip0_2_709)">
<path d="M38.549 91C59.8039 91 77.098 73.5517 77.098 52.1074C77.1176 44.9461 75.1569 37.9035 71.4314 31.8104L73.0784 32.2259C73.549 32.3446 74.0392 32.2061 74.3725 31.8698L89.6078 16.5185C89.9804 16.1426 90.098 15.5689 89.9216 15.0744C89.7451 14.5798 89.2941 14.2237 88.7647 14.1644L77.2941 13.017L76.1569 1.44413C76.098 0.910004 75.7451 0.455004 75.2549 0.276961C74.7647 0.0989175 74.1961 0.217613 73.8235 0.593483L58.6078 15.9448C58.2745 16.2811 58.1373 16.7954 58.2549 17.2504L58.6667 18.9122C52.6078 15.1535 45.6471 13.1752 38.549 13.195C17.2941 13.2346 0 30.663 0 52.1074C0 73.5517 17.2941 91 38.549 91ZM73 29.3574L68.6078 28.2496L65.0392 27.3396L76.5686 15.7074L85.6274 16.6174L73 29.3574ZM73.7255 4.62913L74.6274 13.7687L63.098 25.4009L62.2157 21.8004V21.7807L61.1176 17.3494L73.7255 4.62913ZM38.549 15.9844C46.1373 15.9646 53.549 18.3978 59.6667 22.928L60.8431 27.6759L37.5686 51.138C37.0392 51.6722 37.0392 52.5624 37.5686 53.0965C38.098 53.6307 38.9608 53.6307 39.5098 53.0965L62.7647 29.6344L67.4706 30.8213C71.9608 36.9935 74.3725 44.4515 74.3529 52.1272C74.3529 72.0483 58.2941 88.2502 38.549 88.2502C18.8039 88.2304 2.7451 72.0285 2.7451 52.1074C2.7451 32.1863 18.8039 15.9844 38.549 15.9844Z" fill="#D6B764"/>
<path d="M38.549 79.1502C53.3333 79.1502 65.3529 67.0235 65.3529 52.1074C65.3725 46.41 63.5882 40.8511 60.2549 36.2417C59.8039 35.6285 58.9608 35.49 58.3333 35.9252C57.7255 36.3802 57.5882 37.2309 58.0392 37.8639C65.4117 48.1113 63.7059 62.3746 54.1568 70.5843C44.6078 78.7941 30.3921 78.2204 21.5294 69.2589C12.6666 60.2974 12.098 45.955 20.2549 36.3407C28.4117 26.7065 42.5294 25.025 52.6863 32.4633C53.2941 32.9183 54.1568 32.7798 54.6078 32.1665C55.0588 31.5533 54.9215 30.6828 54.3137 30.2278C49.7451 26.8648 44.2157 25.0448 38.549 25.0646C23.7647 25.0646 11.7451 37.1913 11.7451 52.1074C11.7451 67.0235 23.7647 79.1502 38.549 79.1502Z" fill="#D6B764"/>
<path d="M38.549 44.8076C34.549 44.8076 31.3137 48.0717 31.3137 52.1074C31.3137 56.143 34.549 59.4072 38.549 59.4072C42.549 59.4072 45.7843 56.143 45.7843 52.1074C45.7843 51.3359 45.1765 50.7226 44.4118 50.7226C43.6471 50.7226 43.0392 51.3359 43.0392 52.1074C43.0392 54.6198 41.0196 56.6376 38.5294 56.6376C36.0392 56.6376 34.0392 54.6 34.0392 52.1074C34.0392 49.595 36.0588 47.5772 38.5294 47.5772C39.2941 47.5772 39.902 46.9639 39.902 46.1924C39.9216 45.4209 39.2941 44.8076 38.549 44.8076Z" fill="#D6B764"/>
</g>
<defs>
<clipPath id="clip0_2_709">
<rect width="90" height="91" fill="white"/>
</clipPath>
</defs>
</svg>
