<svg width="84" height="81" viewBox="0 0 84 81" fill="none" xmlns="http://www.w3.org/2000/svg">
<path d="M77.8094 66.336V61.1362C77.8094 60.4617 77.2625 59.9178 76.5844 59.9178C75.9062 59.9178 75.3594 60.4617 75.3594 61.1362V66.2272H8.6625V25.477C8.6625 22.6052 11.025 20.2554 13.9125 20.2554H25.0469C25.2 21.1039 25.4188 21.9089 25.7031 22.7139H13.9125C12.3812 22.7139 11.1125 23.9541 11.1125 25.4988V62.5721C11.1125 63.2466 11.6594 63.7905 12.3375 63.7905H71.6406C72.3187 63.7905 72.8656 63.2466 72.8656 62.5721V25.477C72.8656 23.9541 71.6187 22.6922 70.0656 22.6922H58.275C58.5375 21.9089 58.7562 21.0822 58.9312 20.2337H70.0875C72.975 20.2337 75.3375 22.5834 75.3375 25.4553V56.2192C75.3375 56.8936 75.8844 57.4376 76.5625 57.4376C77.2406 57.4376 77.7875 56.8936 77.7875 56.2192V25.477C77.7875 21.2562 74.3312 17.7969 70.0656 17.7969H59.1938C59.1938 17.5794 59.2156 17.3618 59.2156 17.1225C59.2375 7.6801 51.4938 0 42 0C38.4562 0 35.0656 1.06608 32.1781 3.04593C31.6313 3.43755 31.4781 4.19903 31.8719 4.74295C32.2656 5.30862 33.0312 5.43916 33.5781 5.04754C36.05 3.32877 38.9594 2.43674 42 2.43674C50.1375 2.43674 56.7656 9.02901 56.7656 17.1225C56.7656 25.216 50.1375 31.8082 42 31.8082C33.8625 31.8082 27.2344 25.216 27.2344 17.1225C27.2344 13.8372 28.3063 10.726 30.3188 8.13699C30.7344 7.59307 30.6469 6.83159 30.1 6.41821C29.5531 6.00484 28.7875 6.09186 28.3719 6.63578C26.0094 9.65995 24.7844 13.2933 24.7844 17.1225C24.7844 17.34 24.7844 17.5794 24.8062 17.7969H13.9125C9.66875 17.7969 6.19062 21.2345 6.19062 25.477V66.336C2.69062 66.9235 0 69.9694 0 73.6245C0 77.693 3.325 81 7.41563 81H76.5625C80.6531 81 83.9781 77.693 83.9781 73.6245C84 69.9694 81.3094 66.9235 77.8094 66.336ZM42 34.2885C48.5844 34.2885 54.3375 30.5898 57.225 25.1507H70.0875C70.2625 25.1507 70.4156 25.303 70.4156 25.477V61.332H13.5844V25.477C13.5844 25.303 13.7375 25.1507 13.9125 25.1507H26.775C29.6625 30.5681 35.4156 34.2885 42 34.2885ZM53.3312 68.6857C52.8063 70.4045 51.1875 71.6664 49.2844 71.6664H34.7156C32.8125 71.6664 31.1937 70.4045 30.6687 68.6857H53.3312ZM76.5844 78.5633H7.41563C4.68125 78.5633 2.45 76.3441 2.45 73.6245C2.45 70.9049 4.68125 68.6857 7.41563 68.6857H28.1313C28.7 71.7752 31.4344 74.1031 34.6938 74.1031H49.2625C52.5219 74.1031 55.2562 71.7534 55.825 68.6857H76.5406C79.275 68.6857 81.5062 70.9049 81.5062 73.6245C81.55 76.3441 79.3187 78.5633 76.5844 78.5633Z" fill="#D6B764"/>
<path d="M41.9124 22.5616C40.5343 22.5616 40.0968 22.4964 39.0468 21.8002C38.4781 21.4303 37.7124 21.5826 37.3405 22.1483C36.9687 22.7139 37.1218 23.4754 37.6906 23.8453C38.8718 24.6068 39.6812 24.8678 40.6874 24.9549V25.7164C40.6874 26.3908 41.2343 26.9347 41.9124 26.9347C42.5906 26.9347 43.1374 26.3908 43.1374 25.7164V24.8243C45.1937 24.3022 46.5062 22.5616 46.7906 20.8429C47.1624 18.6237 45.9593 16.6438 43.7937 15.8824C42.5249 15.4472 41.1249 14.9033 40.3374 14.2724C40.0531 14.033 39.9218 13.5544 40.0093 13.0322C40.0968 12.5101 40.4687 11.8791 41.1468 11.6833C42.6999 11.2264 43.7281 12.0097 43.8374 12.1185C44.3624 12.5536 45.1281 12.4883 45.5656 11.9662C46.0031 11.444 45.9374 10.6825 45.4124 10.2474C45.1937 10.0733 44.3843 9.44239 43.1374 9.20306V8.52861C43.1374 7.85415 42.5906 7.31023 41.9124 7.31023C41.2343 7.31023 40.6874 7.85415 40.6874 8.52861V9.29009C40.5999 9.31185 40.5343 9.3336 40.4468 9.35536C38.9812 9.79049 37.8874 11.0306 37.603 12.5971C37.3405 14.033 37.7999 15.4255 38.8281 16.2087C39.7031 16.8832 40.9062 17.4706 42.9843 18.1886C44.4937 18.7107 44.4718 19.9508 44.3843 20.4512C44.2093 21.4738 43.3562 22.5616 41.9124 22.5616Z" fill="#D6B764"/>
<path d="M39.6375 59.5915C40.2281 60.2659 41.0812 60.6575 42 60.6575C42.8968 60.6575 43.7718 60.2659 44.3625 59.5915L50.7281 52.3247C51.5375 51.3892 51.7343 50.1273 51.2093 48.996C50.6843 47.8646 49.6125 47.1684 48.3656 47.1684H47.6656V36.747C47.6656 36.0725 47.1187 35.5286 46.4406 35.5286H37.6031C36.925 35.5286 36.3781 36.0725 36.3781 36.747V47.1684H35.6781C34.4312 47.1684 33.3375 47.8646 32.8343 48.996C32.3093 50.1273 32.5062 51.3892 33.3156 52.3247L39.6375 59.5915ZM35.0218 49.9968C35.0656 49.888 35.2406 49.6052 35.6343 49.6052H37.5812C38.2593 49.6052 38.8062 49.0612 38.8062 48.3868V37.9653H45.1937V48.3868C45.1937 49.0612 45.7406 49.6052 46.4187 49.6052H48.3656C48.7593 49.6052 48.9125 49.8662 48.9781 49.9968C49.0218 50.1056 49.1312 50.4102 48.8687 50.7147L42.5031 57.9815C42.3281 58.1773 42.1093 58.199 42 58.199C41.8906 58.199 41.6718 58.1773 41.4968 57.9815L35.1312 50.7147C34.8906 50.4319 34.9781 50.1273 35.0218 49.9968Z" fill="#D6B764"/>
</svg>
