<svg width="82" height="82" viewBox="0 0 82 82" fill="none" xmlns="http://www.w3.org/2000/svg">
<g clip-path="url(#clip0_2_715)">
<path d="M60.8387 10.5806C60.8387 16.422 65.5779 21.1613 71.4193 21.1613C72.1908 21.1613 72.9403 21.0731 73.6677 20.9188C73.9543 21.3817 74.2408 21.8226 74.5054 22.3075L76.8199 21.007C76.6215 20.6764 76.4231 20.3457 76.2247 20.0151C79.6414 18.2516 82 14.7027 82 10.5806C82 4.73925 77.2607 0 71.4193 0C67.2973 0 63.7484 2.3586 61.9849 5.79731C61.4339 5.46667 60.8828 5.13602 60.3097 4.82742L59.0753 7.16398C59.7586 7.53871 60.4419 7.93549 61.1032 8.33226C60.9269 9.05968 60.8387 9.80914 60.8387 10.5806ZM71.4193 2.64516C75.8059 2.64516 79.3548 6.19409 79.3548 10.5806C79.3548 14.9672 75.8059 18.5161 71.4193 18.5161C67.0328 18.5161 63.4839 14.9672 63.4839 10.5806C63.4839 6.19409 67.0328 2.64516 71.4193 2.64516Z" fill="#D6B764"/>
<path d="M5.79731 20.0151C5.46666 20.5661 5.13602 21.1172 4.82742 21.6903L7.16398 22.9468C7.53871 22.2634 7.93548 21.5801 8.33225 20.9409C9.05967 21.0731 9.80914 21.1613 10.5806 21.1613C16.422 21.1613 21.1613 16.422 21.1613 10.5806C21.1613 9.80914 21.0731 9.05968 20.9188 8.33226C21.3817 8.0457 21.8226 7.75914 22.2855 7.49462L21.007 5.18011C20.6763 5.35645 20.3457 5.57688 20.015 5.77527C18.2516 2.3586 14.7027 0 10.5806 0C4.73925 0 0 4.76129 0 10.5806C0 14.7027 2.3586 18.2516 5.79731 20.0151ZM10.5806 2.64516C14.9672 2.64516 18.5161 6.19409 18.5161 10.5806C18.5161 14.9672 14.9672 18.5161 10.5806 18.5161C6.19408 18.5161 2.64516 14.9672 2.64516 10.5806C2.64516 6.19409 6.19408 2.64516 10.5806 2.64516Z" fill="#D6B764"/>
<path d="M76.2027 62.007C76.5333 61.4559 76.864 60.9048 77.1726 60.3317L74.836 59.0753C74.4613 59.7586 74.0645 60.4419 73.6677 61.0812C72.9403 60.9269 72.1908 60.8387 71.4193 60.8387C65.5779 60.8387 60.8387 65.578 60.8387 71.4194C60.8387 72.1909 60.9269 72.9403 61.0812 73.6677C60.6183 73.9543 60.1774 74.2409 59.6924 74.5054L60.993 76.8199C61.3236 76.6215 61.6543 76.4231 61.9849 76.2247C63.7263 79.6634 67.2973 82.022 71.4193 82.022C77.2607 82.022 82 77.2828 82 71.4414C82 67.3194 79.6414 63.7484 76.2027 62.007ZM71.4193 79.3548C67.0328 79.3548 63.4838 75.8059 63.4838 71.4194C63.4838 67.0328 67.0328 63.4839 71.4193 63.4839C75.8059 63.4839 79.3548 67.0328 79.3548 71.4194C79.3548 75.8059 75.8059 79.3548 71.4193 79.3548Z" fill="#D6B764"/>
<path d="M21.1613 71.4194C21.1613 65.578 16.422 60.8387 10.5806 60.8387C9.80914 60.8387 9.05968 60.9269 8.33226 61.0812C8.0457 60.6183 7.75914 60.1774 7.49462 59.6925L5.18011 60.993C5.37849 61.3237 5.57688 61.6543 5.77527 61.985C2.3586 63.7484 0 67.3194 0 71.4194C0 77.2608 4.73925 82 10.5806 82C14.7027 82 18.2516 79.6414 20.0151 76.2027C20.5661 76.5333 21.1172 76.864 21.6903 77.1726L22.9468 74.836C22.2634 74.4613 21.5801 74.0645 20.9188 73.6678C21.0731 72.9403 21.1613 72.1909 21.1613 71.4194ZM10.5806 79.3548C6.19409 79.3548 2.64516 75.8059 2.64516 71.4194C2.64516 67.0328 6.19409 63.4839 10.5806 63.4839C14.9672 63.4839 18.5161 67.0328 18.5161 71.4194C18.5161 75.8059 14.9672 79.3548 10.5806 79.3548Z" fill="#D6B764"/>
<path d="M4.45266 52.6828C4.18814 51.8672 3.96771 51.0516 3.76932 50.236L1.19029 50.8753C1.41072 51.757 1.6532 52.6387 1.93975 53.4984L4.45266 52.6828Z" fill="#D6B764"/>
<path d="M0.639273 48.186L3.24035 47.7231C3.08605 46.8855 2.97583 46.0258 2.88766 45.1882L0.264542 45.4747C0.330671 46.3785 0.462929 47.2823 0.639273 48.186Z" fill="#D6B764"/>
<path d="M0.176331 37.2968L2.82149 37.5393C2.88762 36.6796 2.99784 35.8419 3.13009 35.0043L0.506976 34.5855C0.352675 35.4893 0.24246 36.393 0.176331 37.2968Z" fill="#D6B764"/>
<path d="M6.32632 57.4441C5.97363 56.6726 5.62095 55.9011 5.31234 55.1075L2.86557 56.0774C3.19622 56.9151 3.57095 57.7747 3.94568 58.5903L6.32632 57.4441Z" fill="#D6B764"/>
<path d="M1.01396 31.8962L3.59299 32.4914C3.79138 31.6538 3.98977 30.8382 4.23224 30.0226L1.6973 29.2731C1.45482 30.1108 1.21235 31.0145 1.01396 31.8962Z" fill="#D6B764"/>
<path d="M6.03974 25.2393L3.63705 24.1371C3.26232 24.9527 2.90963 25.8124 2.60103 26.6721L5.06985 27.5979C5.35641 26.7823 5.68705 25.9887 6.03974 25.2393Z" fill="#D6B764"/>
<path d="M2.6672 42.6532C2.64516 42.1021 2.64516 41.5511 2.64516 41C2.64516 40.6914 2.64516 40.3828 2.6672 40.0962L0.022043 40.0301C0.022043 40.3608 0 40.6914 0 41C0 41.5952 0.022043 42.1683 0.044086 42.7634L2.6672 42.6532Z" fill="#D6B764"/>
<path d="M50.214 78.2527L50.8532 80.8097C51.7349 80.5892 52.6166 80.3468 53.4763 80.0602L52.6607 77.5473C51.8672 77.8118 51.0516 78.0323 50.214 78.2527Z" fill="#D6B764"/>
<path d="M40.0962 79.3548L40.0301 82C40.3608 82 40.6914 82.022 41 82.022C41.5952 82.022 42.1683 82 42.7414 81.978L42.6312 79.3328C41.7936 79.3548 40.9339 79.3769 40.0962 79.3548Z" fill="#D6B764"/>
<path d="M34.5855 81.515C35.4892 81.6473 36.393 81.7575 37.2968 81.8457L37.5392 79.2005C36.6796 79.1344 35.8419 79.0242 35.0043 78.8919L34.5855 81.515Z" fill="#D6B764"/>
<path d="M45.1882 79.1344L45.4747 81.7575C46.3565 81.6694 47.2823 81.5371 48.186 81.3828L47.7231 78.7817C46.8855 78.914 46.0258 79.0463 45.1882 79.1344Z" fill="#D6B764"/>
<path d="M24.1371 78.385C24.9747 78.7597 25.8124 79.1124 26.672 79.421L27.5978 76.9301C26.8043 76.6436 26.0107 76.3129 25.2392 75.9602L24.1371 78.385Z" fill="#D6B764"/>
<path d="M55.0855 76.6876L56.0554 79.1565C56.893 78.8258 57.7306 78.4511 58.5683 78.0764L57.4441 75.6957C56.6726 76.0264 55.879 76.379 55.0855 76.6876Z" fill="#D6B764"/>
<path d="M29.2511 80.3027C30.1108 80.5672 30.9925 80.7877 31.8963 80.986L32.4914 78.407C31.6538 78.2086 30.8382 78.0102 30.0226 77.7678L29.2511 80.3027Z" fill="#D6B764"/>
<path d="M79.4209 55.35L76.9521 54.4242C76.6435 55.2177 76.3349 56.0113 75.9822 56.7828L78.3849 57.8629C78.7597 57.0473 79.1123 56.1876 79.4209 55.35Z" fill="#D6B764"/>
<path d="M80.986 50.1038L78.407 49.5086C78.2086 50.3462 78.0102 51.1618 77.7678 51.9774L80.3027 52.7269C80.5452 51.8892 80.7877 51.0075 80.986 50.1038Z" fill="#D6B764"/>
<path d="M81.3607 33.814L78.7597 34.2769C78.914 35.1366 79.0242 35.9742 79.1124 36.8118L81.7355 36.5253C81.6693 35.6435 81.5371 34.7177 81.3607 33.814Z" fill="#D6B764"/>
<path d="M81.8457 44.7032L79.2005 44.4608C79.1344 45.3204 79.0242 46.1581 78.8919 46.9957L81.5151 47.4145C81.6473 46.5107 81.7575 45.607 81.8457 44.7032Z" fill="#D6B764"/>
<path d="M79.3328 39.3468C79.3548 39.8979 79.3548 40.4489 79.3548 41C79.3548 41.3086 79.3548 41.6172 79.3328 41.9038L81.9779 41.9699C81.9779 41.6393 82 41.3086 82 41C82 40.4048 81.9779 39.8317 81.9559 39.2366L79.3328 39.3468Z" fill="#D6B764"/>
<path d="M75.6736 24.578C76.0263 25.3495 76.379 26.121 76.6876 26.9145L79.1565 25.9446C78.8258 25.107 78.4511 24.2473 78.0763 23.4317L75.6736 24.578Z" fill="#D6B764"/>
<path d="M80.8097 31.1468C80.5892 30.2651 80.3468 29.3833 80.0602 28.5237L77.5473 29.3392C77.8118 30.1548 78.0322 30.9704 78.2306 31.786L80.8097 31.1468Z" fill="#D6B764"/>
<path d="M47.4145 0.507014C46.5107 0.374756 45.607 0.242498 44.7032 0.176369L44.4607 2.82153C45.3204 2.88766 46.158 2.99787 46.9957 3.13013L47.4145 0.507014Z" fill="#D6B764"/>
<path d="M36.8119 2.86559L36.5253 0.24247C35.6215 0.330642 34.7178 0.4629 33.814 0.639244L34.2769 3.24032C35.1145 3.08602 35.9522 2.9758 36.8119 2.86559Z" fill="#D6B764"/>
<path d="M57.8629 3.61506C57.0253 3.24033 56.1876 2.88764 55.328 2.57904L54.4242 5.0699C55.2177 5.3785 56.0113 5.68711 56.7828 6.03979L57.8629 3.61506Z" fill="#D6B764"/>
<path d="M26.9145 5.31237L25.9446 2.86559C25.107 3.19624 24.2694 3.57097 23.4317 3.9457L24.5559 6.32635C25.3274 5.97366 26.121 5.62097 26.9145 5.31237Z" fill="#D6B764"/>
<path d="M31.764 3.76937L31.1247 1.21238C30.243 1.43281 29.3613 1.67528 28.5016 1.96184L29.3172 4.47474C30.1328 4.21023 30.9484 3.96776 31.764 3.76937Z" fill="#D6B764"/>
<path d="M52.749 1.71935C51.8893 1.45484 50.9855 1.23441 50.1038 1.03602L49.5306 3.61505C50.3683 3.81344 51.1839 4.01182 51.9995 4.2543L52.749 1.71935Z" fill="#D6B764"/>
<path d="M40.9559 2.64516C41.2866 2.64516 41.5952 2.64516 41.9038 2.64516L41.9699 3.32063e-06C41.6613 3.32063e-06 41.3307 3.32063e-06 41 3.32063e-06C40.3828 -0.0220397 39.8317 0.0220463 39.2366 0.0440893L39.3468 2.68925C39.8758 2.66721 40.4269 2.64516 40.9559 2.64516Z" fill="#D6B764"/>
<path d="M40.8898 16.8849C27.7522 16.8849 17.1054 27.5317 17.1054 40.6694C17.1054 53.807 27.7522 64.4538 40.8898 64.4538C54.0274 64.4538 64.6742 53.807 64.6742 40.6694C64.6742 27.5317 54.0274 16.8849 40.8898 16.8849ZM61.4559 49.0016L54.6887 50.1699C55.4602 47.3263 55.8791 44.3946 55.9231 41.4629H63.043C62.9769 44.0419 62.4479 46.5989 61.4559 49.0016ZM18.7145 41.4629H25.8344C25.8785 44.4167 26.2973 47.3263 27.0688 50.1699L20.3016 49.0016C19.3317 46.5989 18.8027 44.0419 18.7145 41.4629ZM20.3237 32.3371L27.0909 31.1688C26.3194 34.0124 25.9006 36.9441 25.8565 39.8758H18.7145C18.8027 37.2968 19.3317 34.7398 20.3237 32.3371ZM41.6834 29.6038C44.5269 29.6479 47.3704 29.8903 50.192 30.3753L52.9914 30.8602C53.8511 33.7919 54.314 36.8118 54.3581 39.8758H41.6834V29.6038ZM50.4565 28.8323C47.5688 28.3473 44.6151 28.0608 41.6834 28.0387V18.5161C46.2242 18.957 50.1699 23.1231 52.4183 29.1849L50.4565 28.8323ZM40.0963 28.0167C37.1645 28.0608 34.2328 28.3253 31.3231 28.8102L29.3613 29.1409C31.6097 23.079 35.5554 18.9129 40.0963 18.472V28.0167ZM31.5877 30.3973C34.3871 29.9124 37.2307 29.6479 40.0963 29.6258V39.8979H27.4215C27.4656 36.8559 27.9285 33.814 28.7882 30.8823L31.5877 30.3973ZM27.4215 41.4629H40.0963V51.7349C37.2527 51.6909 34.4092 51.4484 31.5877 50.9634L28.7882 50.4785C27.9285 47.5468 27.4656 44.5048 27.4215 41.4629ZM31.3231 52.5065C34.2108 53.0134 37.1645 53.278 40.0963 53.3V62.8226C35.5554 62.3817 31.6097 58.2156 29.3613 52.1538L31.3231 52.5065ZM41.6834 53.322C44.6151 53.278 47.5468 53.0134 50.4565 52.5285L52.4183 52.1979C50.1699 58.2597 46.2242 62.4258 41.6834 62.8667V53.322ZM50.192 50.9414C47.3925 51.4263 44.5489 51.6909 41.6834 51.7129V41.4409H54.3581C54.314 44.4828 53.8511 47.5247 52.9914 50.4564L50.192 50.9414ZM55.9452 39.8758C55.9011 36.922 55.4823 34.0124 54.7108 31.1688L61.478 32.3371C62.4479 34.7398 62.9989 37.2968 63.0871 39.8758H55.9452ZM60.6624 30.5957L54.1817 29.4715C53.0135 25.6581 50.8312 22.2634 47.8774 19.5962C53.4102 21.4479 57.9952 25.3936 60.6624 30.5957ZM33.9022 19.5962C30.9484 22.2414 28.7661 25.6581 27.5979 29.4715L21.1172 30.5957C23.7844 25.3936 28.3694 21.4479 33.9022 19.5962ZM21.1172 50.743L27.5979 51.8672C28.7661 55.6806 30.9484 59.0753 33.9022 61.7425C28.3694 59.8909 23.7844 55.9452 21.1172 50.743ZM47.8774 61.7425C50.8312 59.0973 53.0135 55.6806 54.1817 51.8672L60.6624 50.743C57.9952 55.9452 53.4102 59.8909 47.8774 61.7425Z" fill="#D6B764"/>
</g>
<defs>
<clipPath id="clip0_2_715">
<rect width="82" height="82" fill="white"/>
</clipPath>
</defs>
</svg>
