<svg width="119" height="119" viewBox="0 0 119 119" fill="none" xmlns="http://www.w3.org/2000/svg">
<path d="M59.519 0.393494C26.8655 0.393494 0.393494 26.8655 0.393494 59.519C0.393494 92.1724 26.8655 118.644 59.519 118.644C92.1724 118.644 118.644 92.1724 118.644 59.519C118.644 26.8655 92.2002 0.393494 59.519 0.393494ZM59.519 18.1339C69.3039 18.1339 77.2594 26.0894 77.2594 35.8743C77.2594 45.687 69.3039 53.6147 59.519 53.6147C49.734 53.6147 41.7786 45.687 41.7786 35.8743C41.7786 26.0894 49.734 18.1339 59.519 18.1339ZM59.519 102.096C44.7168 102.096 31.6887 94.5286 24.0381 83.0528C24.1767 71.3274 47.7105 64.8411 59.519 64.8411C71.3274 64.8411 94.8335 71.3274 94.9998 83.0528C87.3493 94.5286 74.3489 102.096 59.519 102.096Z" fill="white"/>
</svg>
